<svg xmlns="http://www.w3.org/2000/svg" xmlns:xlink="http://www.w3.org/1999/xlink" width="446.32" height="217.72" viewBox="0 0 446.32 217.72">
  <defs>
    <clipPath id="clip-path" transform="translate(0 0)">
      <rect width="446.32" height="217.72" fill="none"/>
    </clipPath>
  </defs>
  <title>Asset 8</title>
  <g id="Layer_2" data-name="Layer 2">
    <g id="Layer_1-2" data-name="Layer 1">
      <g clip-path="url(#clip-path)">
        <path d="M41.88,217.72h-.17a3.18,3.18,0,0,1-3-3.34c.49-9.12,1.44-34.06.12-41.3-1-2.41-3.68-6.71-7-12.1C20.46,142.75,1.5,112.24.19,81.64l0-1C.1,79.5.08,79.1,0,75.24c-1-68,58.1-73.83,58.7-73.88.17-.05,50.71-8.21,81.81,16.06,14.12,11,21.89,26.89,23.1,47.21a38.88,38.88,0,0,0,1.06,5.15c1.58,6.54,3.55,14.66.37,19.68-.06,1.48,4.52,6.7,7.54,10.15,4.83,5.5,10.3,11.75,12.53,18.13,1.7,4.86.43,8.25-.94,10.23a11.38,11.38,0,0,1-7.92,4.75c-1.38,0-3,0-4.58-.05-1.2,0-2.78-.08-4-.06-.08,3.42,0,10.39.11,16.69.09,6,.18,12.65.18,18.62,0,15.92-13.17,20.13-20.13,20.13h-18v26.49a3.18,3.18,0,1,1-6.35,0V184.87a3.17,3.17,0,0,1,3.17-3.17h21.19c1.4,0,13.78-.5,13.78-13.78,0-5.94-.1-12.53-.19-18.53-.3-21.26-.3-21.26,1.87-22.41a2.33,2.33,0,0,1,.49-.21c1.92-.64,4.79-.55,8.1-.46,1.47,0,2.94.1,4.2,0a5.55,5.55,0,0,0,3-2.19c.66-1.11.67-2.53,0-4.33-1.82-5.22-6.86-11-11.31-16-6.28-7.17-11.25-12.83-8.13-17.74,1.73-2.74-.09-10.28-1.18-14.78A39,39,0,0,1,157.27,65c-1.1-18.42-8.05-32.74-20.66-42.58C108.16.22,60,7.56,59.56,7.65c-2.51.24-54.15,5.52-53.19,67.48.06,3.73.08,4.13.13,5.2l0,1c1.24,28.94,19.65,58.55,30.65,76.25C41,163.71,43.7,168.1,44.84,171a3.1,3.1,0,0,1,.15.52c1.86,9.07.14,41.8.06,43.19a3.18,3.18,0,0,1-3.17,3" transform="translate(0 0)" fill="#121717"/>
        <path d="M404.44,217.72a3.18,3.18,0,0,1-3.17-3c-.08-1.39-1.8-34.12.06-43.19a3.1,3.1,0,0,1,.15-.52c1.14-2.9,3.87-7.29,7.65-13.38,11-17.7,29.41-47.31,30.65-76.25l.05-1c.05-1.11.06-1.47.12-5.24,1-62.13-50.67-67.25-52.87-67.44-.79-.13-48.92-7.48-77.37,14.74C297.1,32.27,290.15,46.59,289.06,65a41.31,41.31,0,0,1-1.23,6.26c-1.09,4.5-2.92,12-1.19,14.79,3.12,4.91-1.85,10.57-8.13,17.74-4.45,5.07-9.49,10.82-11.31,16a5,5,0,0,0,.05,4.33,5.42,5.42,0,0,0,3.15,2.21c1.09,0,2.58,0,4.05-.07,3.31-.09,6.18-.18,8.1.46a3.26,3.26,0,0,1,.48.2c2.19,1.16,2.19,1.16,1.88,22.42-.09,6-.19,12.59-.19,18.53,0,13.28,12.38,13.76,13.79,13.78h21.18a3.17,3.17,0,0,1,3.17,3.17v29.67a3.18,3.18,0,1,1-6.35,0V188.05h-18c-7,0-20.13-4.21-20.13-20.13,0-6,.09-12.59.18-18.62.09-6.3.19-13.27.11-16.69-1.28,0-2.83,0-4,.06-1.59.05-3.2.09-4.58.05a11.39,11.39,0,0,1-7.92-4.75c-1.37-2-2.64-5.37-.94-10.23,2.23-6.39,7.7-12.63,12.53-18.14,3-3.45,7.6-8.66,7.48-10.33-3.12-4.83-1.15-13,.44-19.5a40.18,40.18,0,0,0,1.06-5.14c1.21-20.31,9-36.2,23.09-47.21,31.1-24.27,81.65-16.11,82.14-16,.28,0,59.43,5.85,58.37,73.83-.07,3.92-.08,4.29-.14,5.43l0,1c-1.31,30.6-20.27,61.11-31.6,79.33-3.35,5.39-6,9.69-7,12.1-1.32,7.24-.37,32.18.12,41.3a3.18,3.18,0,0,1-3,3.34h-.17" transform="translate(0 0)" fill="#121717"/>
        <path d="M234.25,130.15a3.19,3.19,0,0,1-3-2.11L218.91,93.43l-7.59,15.19a3.13,3.13,0,0,1-3.25,1.73,3.17,3.17,0,0,1-2.7-2.49L195.25,60.64l-9.16,30.52a3.17,3.17,0,0,1-3,2.27h-89a42,42,0,0,1-5.37-.71A32.75,32.75,0,0,1,63.91,53.58,26.8,26.8,0,0,1,96,33.38a22.06,22.06,0,0,1,16.64,26.4A18.29,18.29,0,0,1,90.72,73.57,15.26,15.26,0,0,1,79.21,55.31a3.18,3.18,0,1,1,6.2,1.4,8.91,8.91,0,0,0,6.72,10.66,11.94,11.94,0,0,0,14.28-9,15.7,15.7,0,0,0-11.85-18.8A20.48,20.48,0,0,0,70.11,55,26.37,26.37,0,0,0,90,86.49a35.18,35.18,0,0,0,4.08.58h86.63l12-40.12a3,3,0,0,1,3.18-2.26,3.18,3.18,0,0,1,3,2.51l10.81,50.47,4.43-8.84A3.15,3.15,0,0,1,217,87.07h4.24a3.17,3.17,0,0,1,3,2.11l10,28.08,9.43-28a3.18,3.18,0,0,1,3-2.16H352.27a36.76,36.76,0,0,0,4.19-.6A26.34,26.34,0,0,0,376.21,55a20.46,20.46,0,0,0-24.45-15.4,15.68,15.68,0,0,0-11.84,18.79,11.92,11.92,0,0,0,14.27,9,8.92,8.92,0,0,0,6.73-10.66,3.18,3.18,0,1,1,6.2-1.4A15.28,15.28,0,0,1,355.6,73.57a18.28,18.28,0,0,1-21.88-13.79,22,22,0,0,1,16.63-26.4,26.8,26.8,0,0,1,32.06,20.2,32.68,32.68,0,0,1-24.65,39.11,41,41,0,0,1-5.49.74H248.9L237.26,128a3.17,3.17,0,0,1-3,2.16Z" transform="translate(0 0)" fill="#84c342"/>
      </g>
    </g>
  </g>
</svg>
